<svg width="310" height="261" viewBox="0 0 310 261" fill="none" xmlns="http://www.w3.org/2000/svg">
<path opacity="0.1" d="M295.103 68.7137C292.124 61.0827 288.098 54.0032 283.168 47.7239L117.58 45.9233L253.915 24.7881C245.107 20.9168 235.731 18.8634 226.252 18.73C213.21 7.22407 197.151 0.672193 180.465 0.048974C163.778 -0.574245 147.355 4.76449 133.639 15.2711C122.677 9.05126 110.525 5.81898 98.1995 5.84456C61.4073 5.84456 30.7481 33.9689 23.8712 71.2675L295.103 68.7137Z" fill="#2FAFFF"/>
<path opacity="0.1" d="M300.984 100.089C300.992 89.9776 299.24 79.9583 295.822 70.5756L8.76812 103.816C5.80802 109.722 3.54372 116.021 2.03017 122.561L90.9213 137.182L0 147.847C2.73619 190.059 35.5383 223.393 75.6086 223.393C95.7785 223.393 114.109 214.944 127.687 201.17C141.312 215.206 159.815 223.835 180.202 223.835C210.453 223.835 236.561 204.835 248.718 177.361C273.113 168.822 292.061 147.375 298.547 120.547L186.146 101.298H300.984C300.978 100.894 300.984 100.493 300.984 100.089Z" fill="#2FAFFF"/>
<path d="M99.1795 260.815C142.552 260.815 177.712 255.052 177.712 247.942C177.712 240.832 142.552 235.069 99.1795 235.069C55.8071 235.069 20.6468 240.832 20.6468 247.942C20.6468 255.052 55.8071 260.815 99.1795 260.815Z" fill="#EAF7FF"/>
<path d="M180.4 165.015C176.868 165.901 173.242 164.178 173.242 164.178C173.242 164.178 170.149 160.598 167.541 160.113C164.932 159.629 163.922 163.867 162.372 164.957C161.3 165.721 153.564 165.175 148.88 164.766L148.074 164.694C147.994 164.635 147.915 164.573 147.828 164.517C147.828 164.517 143.331 163.133 142.393 161.909C141.456 160.684 135.19 158.418 133.246 158.55C131.302 158.681 125.555 158.992 125.555 158.992C125.555 158.992 123.303 156.429 122.286 156.695C121.269 156.962 117.733 156.674 117.733 156.674C117.733 156.674 116.761 154.177 115.789 150.596C115.336 148.925 113.827 147.752 112.35 146.981C113.679 142.483 111.312 129.655 103.964 127.147C102.362 126.6 101.542 124.784 100.179 123.788C98.9581 122.898 96.9584 120.802 97.9375 117.014C99.3213 111.71 102.753 103.359 102.753 103.359L105.31 98.2523C105.071 98.6141 104.8 98.9534 104.5 99.266C104.846 98.8232 105.192 98.3873 105.49 98.0205C108.041 99.3092 110.824 100.076 113.675 100.276C116.56 101.442 119.442 102.47 120.563 102.432C123.127 102.342 129.665 105.614 129.665 105.614C129.665 105.614 145.396 110.112 148.665 110.475C151.935 110.838 153.526 106.586 153.526 106.586C153.526 106.586 155.225 98.2039 152.208 95.9828C149.191 93.7618 147.437 103.94 147.437 103.94L126.856 96.5225L125.587 95.8548C126.572 94.8118 127.355 93.5939 127.894 92.2638C128.212 91.4715 128.503 90.5651 129.261 90.1707C129.464 90.0695 129.685 90.005 129.911 89.9804C130.099 89.9683 130.287 89.9683 130.475 89.9804C134.045 90.1984 137.114 93.0076 140.691 93.0214C140.823 93.0214 140.954 93.0214 141.085 93.0214C141.767 93.0194 142.433 92.8147 142.999 92.4333C143.318 92.1735 143.58 91.8509 143.769 91.4855C143.959 91.1201 144.071 90.7197 144.099 90.3091C144.047 90.4204 143.989 90.5289 143.926 90.6343C144.019 90.1254 144.019 89.6037 143.926 89.0948C143.704 87.8805 143.071 86.7907 142.504 85.694C142.343 85.4381 142.253 85.1447 142.241 84.843C142.257 84.6854 142.305 84.5328 142.382 84.3943C142.458 84.2557 142.562 84.1341 142.687 84.0369C142.693 84.0695 142.699 84.1018 142.708 84.1337C142.978 83.8801 143.277 83.6605 143.601 83.4799C144.475 82.9064 145.222 82.1594 145.796 81.2852C146.37 80.4109 146.758 79.4281 146.936 78.3977C146.849 78.6538 146.745 78.9063 146.635 79.1554C147.167 77.3992 147.038 75.5089 146.271 73.8415C146.073 73.3669 145.756 72.9512 145.351 72.6341C144.061 71.7277 142.327 72.6929 140.753 72.7967C139.37 72.8866 138.027 72.2674 136.778 71.6412C134.647 70.5722 132.526 69.4167 130.752 67.8356C128.735 66.0263 127.237 63.7187 125.417 61.7156C123.597 59.7125 121.262 57.9274 118.553 57.7267C113.63 57.3461 108.987 62.2242 104.307 60.6328C102.023 59.8613 100.522 57.7509 98.9339 55.9381C97.3459 54.1253 95.1629 52.3851 92.7827 52.776C91.129 53.0528 89.6967 54.3363 88.0223 54.2879C87.147 54.2602 86.334 53.8693 85.5037 53.5959C83.4937 52.9213 80.7399 53.25 80.0237 55.2496C79.883 55.6569 79.8334 56.0901 79.8782 56.5187C79.923 56.9473 80.0613 57.3608 80.2832 57.7302C80.1773 57.8787 80.0825 58.0348 79.9995 58.1972C79.8276 58.5141 79.7678 58.8799 79.83 59.2351C78.4072 60.5122 77.3529 62.1475 76.7771 63.9706C76.2012 65.7937 76.1248 67.7379 76.5559 69.6006C76.9869 71.4633 77.9096 73.1762 79.2278 74.561C80.546 75.9458 82.2115 76.9518 84.0507 77.474C84.1164 77.7266 84.1822 77.9791 84.2444 78.2351C84.9156 81.0616 85.265 84.2444 84.2721 86.3894C84.2098 86.5209 84.1441 86.6489 84.0714 86.7734L83.985 86.8115L84.023 86.8495L83.985 86.8115L83.8604 86.6835L83.1062 85.8947C83.0647 85.0713 82.6011 82.8641 79.3768 78.7679C75.1319 73.3744 74.3362 64.4487 74.3362 64.4487C74.3362 64.4487 73.2775 59.8543 74.3362 58.5293C75.3948 57.2043 77.1661 42.6152 77.1661 42.6152L80.0929 34.4021C80.0929 34.4021 94.3222 19.9065 88.3959 18.1421C84.3724 16.9416 79.574 23.1273 76.9101 27.2166C75.6016 29.2245 74.7556 31.498 74.433 33.8728L66.3895 55.8793C66.3895 55.8793 65.5938 58.5328 66.3895 63.1271C67.1852 67.7215 68.953 75.8549 68.953 75.8549L73.4505 87.2543C73.4505 87.2543 75.1077 92.1773 74.9624 94.3153C74.7652 94.4433 74.0732 95.8133 73.4747 97.0588L73.0354 97.7507L73.0042 98.0309C72.7102 98.6571 72.506 99.1068 72.506 99.1068C72.506 99.1068 70.0013 106.5 72.0943 111.036C74.1874 115.571 74.2704 117.674 74.2704 117.674L75.8307 124.393L76.4811 130.274L82.0926 144.151L87.2612 151.53C87.2612 151.53 86.7768 156.965 85.7148 157.716C84.6527 158.466 85.1405 162.355 85.1405 162.355L84.4762 172.561C84.4762 172.561 82.4005 175.612 82.269 180.559C82.1375 185.507 81.3833 186.925 81.3833 186.925C81.3833 186.925 81.0374 191.077 82.0026 192.979C82.9678 194.882 80.4562 196.868 80.4562 196.868L82.6115 204.268L81.7708 213.637C81.7708 213.637 82.1618 213.744 82.8087 213.906L82.6772 214.578L79.1623 232.325C79.1623 232.325 77.263 237.189 77.1765 238.335L71.0323 249.429C71.0323 249.429 65.9051 254.512 68.3372 254.996C70.7693 255.48 77.8407 251.107 77.8407 251.107C77.8407 251.107 83.6736 244.832 85.9708 244.261C88.2679 243.69 90.8142 242.047 90.0808 239.663C89.3473 237.279 87.659 233.654 89.2851 229.807C90.3229 227.385 92.5301 220.812 94.0455 216.224C94.1285 215.972 94.208 215.73 94.2876 215.494C94.6884 215.458 95.0847 215.383 95.4708 215.269C99.1829 214.121 101.127 214.924 101.127 214.924L107.756 188.101L109.212 174.644L118.494 182.386C120.331 183.918 122.611 184.819 124.998 184.957C128.655 185.171 134.36 185.7 138.491 186.977L140.221 179.774C140.221 179.774 145.168 179.954 146.23 178.273C146.662 177.581 147.088 176.993 147.437 176.543L148.24 176.418L170.136 173.031C174.201 173.031 179.771 170.288 179.771 170.288L183.175 169.627C183.175 169.627 188.254 168.61 188.71 167.769C189.167 166.929 183.939 164.137 180.4 165.015Z" fill="url(#paint0_linear)"/>
<path d="M81.0443 56.9829C81.7362 55.0317 84.4416 54.703 86.4102 55.3638C87.2197 55.6337 88.0189 56.0177 88.8734 56.0557C90.5132 56.1042 91.9144 54.8449 93.5334 54.5785C95.8617 54.191 97.9963 55.8931 99.5497 57.6679C101.103 59.4427 102.577 61.508 104.812 62.2657C109.389 63.8087 113.935 59.0483 118.75 59.4184C121.394 59.6226 123.677 61.3627 125.459 63.3243C127.24 65.2859 128.707 67.5416 130.679 69.3129C132.409 70.8697 134.485 72.001 136.578 73.0492C137.799 73.6616 139.103 74.267 140.466 74.1771C142.009 74.0767 143.704 73.1392 144.964 74.0179C145.36 74.3287 145.67 74.7361 145.863 75.2011C147.413 78.4254 146.164 82.7188 143.13 84.6146C142.601 84.9433 141.957 85.3066 141.926 85.9397C141.936 86.2354 142.024 86.5231 142.182 86.7734C142.736 87.8459 143.358 88.9149 143.566 90.1015C143.774 91.2882 143.493 92.6547 142.528 93.3743C141.898 93.7935 141.149 93.9985 140.394 93.959C136.892 93.9417 133.89 91.1913 130.395 90.9803C129.948 90.9291 129.496 90.9984 129.084 91.1809C128.344 91.565 128.046 92.4541 127.745 93.229C126.126 97.2733 122.106 100.086 117.816 100.857C113.526 101.629 109.046 100.543 105.206 98.4807C104.925 98.3464 104.667 98.169 104.442 97.9548C104.121 97.5655 103.895 97.1072 103.781 96.616C102.604 92.8969 101.013 89.0049 97.7541 86.8565C95.6403 85.4726 92.7723 84.6942 91.814 82.359C91.2121 80.8817 91.5892 79.2038 91.4369 77.6124C91.2871 76.248 90.7554 74.9535 89.9029 73.8777C89.0504 72.8018 87.9118 71.9883 86.6177 71.5305C86.0504 71.3402 85.4276 71.2053 85.0125 70.7728C84.6754 70.3483 84.4602 69.84 84.3898 69.3025C83.8743 66.9604 83.5318 64.4868 82.8122 62.2C82.2621 60.4079 80.3074 59.0344 81.0443 56.9829Z" fill="#663D5B"/>
<g opacity="0.1">
<path opacity="0.1" d="M142.933 92.2984C142.301 92.7118 141.553 92.9119 140.798 92.8692C137.301 92.8692 134.298 90.1016 130.804 89.894C130.357 89.8416 129.904 89.9097 129.492 90.0912C128.749 90.4752 128.455 91.3643 128.154 92.1393C126.535 96.187 122.511 98.9996 118.221 99.7711C113.931 100.543 109.451 99.4563 105.614 97.3944C105.334 97.2597 105.076 97.0823 104.85 96.8685C104.53 96.4788 104.304 96.0207 104.189 95.5297C103.013 91.8071 101.421 87.9186 98.1624 85.7667C96.0452 84.3656 93.1772 83.6079 92.2223 81.2692C91.6169 79.7885 91.994 78.1106 91.8452 76.5227C91.6959 75.1576 91.164 73.8624 90.3107 72.7864C89.4575 71.7104 88.3177 70.8973 87.0225 70.4407C86.4552 70.2504 85.8325 70.1121 85.4173 69.6831C85.0798 69.2578 84.8656 68.748 84.798 68.2093C84.2791 65.8706 83.9401 63.3935 83.2205 61.1102C82.7361 59.5811 81.2104 58.3425 81.2866 56.7096C81.2418 56.7958 81.2025 56.8848 81.1689 56.976C80.4286 59.0275 82.3867 60.401 82.9437 62.1654C83.6633 64.4487 84.0023 66.9258 84.5213 69.2645C84.5889 69.8031 84.8031 70.3129 85.1405 70.7382C85.5557 71.1672 86.1784 71.3056 86.7458 71.4959C88.0414 71.9527 89.1816 72.7663 90.0348 73.843C90.8881 74.9197 91.4197 76.2156 91.5685 77.5813C91.7172 79.1693 91.3401 80.8472 91.9455 82.3279C92.9004 84.6769 95.7684 85.4415 97.8857 86.8253C101.138 88.9807 102.729 92.8658 103.912 96.5883C104.027 97.0793 104.253 97.5374 104.573 97.9272C104.799 98.141 105.057 98.3184 105.338 98.453C109.174 100.529 113.641 101.598 117.944 100.83C122.248 100.062 126.247 97.2456 127.877 93.1979C128.188 92.423 128.475 91.5338 129.216 91.1498C129.627 90.9683 130.08 90.9002 130.527 90.9526C134.021 91.1637 137.024 93.914 140.522 93.9279C141.277 93.9674 142.025 93.7637 142.656 93.3467C142.969 93.0932 143.226 92.7781 143.412 92.421C143.597 92.0639 143.708 91.6724 143.736 91.2709C143.561 91.6767 143.284 92.0306 142.933 92.2984Z" fill="black"/>
<path opacity="0.1" d="M143.535 83.5283C143.006 83.8743 142.359 84.2203 142.328 84.8534C142.324 84.9804 142.344 85.107 142.386 85.227C142.649 84.9783 142.942 84.7633 143.258 84.587C144.114 84.0265 144.845 83.2959 145.406 82.4406C145.968 81.5853 146.347 80.6237 146.521 79.6156C146.009 81.2265 144.954 82.6097 143.535 83.5283Z" fill="black"/>
</g>
<path d="M90.0981 227.793C88.4963 231.557 90.1431 235.1 90.8765 237.439C91.6099 239.777 89.1052 241.372 86.8565 241.936C84.6077 242.5 78.8994 248.637 78.8994 248.637C78.8994 248.637 71.9802 252.917 69.6 252.443C67.2198 251.969 72.2362 246.994 72.2362 246.994L78.249 236.138C78.3355 235.017 80.1933 230.256 80.1933 230.256L83.6321 212.889L84.0888 210.582L96.2804 209.845C96.2804 209.845 95.6404 211.824 94.7582 214.498C93.274 218.995 91.1014 225.444 90.0981 227.793Z" fill="#CC818C"/>
<path d="M187.399 167.088C186.967 167.911 181.995 168.904 181.995 168.904L178.664 169.551C178.664 169.551 173.215 172.236 169.236 172.236L147.807 175.553L144.933 176V163.843C144.933 163.843 146.379 163.995 148.427 164.189C153.004 164.59 160.577 165.123 161.625 164.375C163.14 163.296 164.133 159.145 166.683 159.622C169.233 160.099 172.263 163.601 172.263 163.601C172.263 163.601 175.809 165.285 179.269 164.42C182.729 163.556 187.831 166.264 187.399 167.088Z" fill="#CC818C"/>
<path opacity="0.1" d="M148.565 174.612C148.565 174.612 148.257 174.958 147.807 175.55L144.933 175.996V163.843C144.933 163.843 146.379 163.995 148.427 164.189C151.866 166.904 148.565 174.612 148.565 174.612Z" fill="black"/>
<path d="M107.182 171.803L118.692 181.407C120.489 182.906 122.721 183.787 125.057 183.922C128.634 184.133 134.218 184.649 138.273 185.901L139.961 178.85C139.961 178.85 144.805 179.023 145.842 177.38C146.452 176.41 147.131 175.485 147.873 174.612C147.873 174.612 151.378 166.441 147.399 163.933C147.399 163.933 142.988 162.59 142.078 161.379C141.169 160.169 135.031 157.965 133.128 158.093C131.226 158.221 125.604 158.525 125.604 158.525C125.604 158.525 123.397 156.017 122.404 156.277C121.411 156.536 117.948 156.277 117.948 156.277C117.948 156.277 116.996 153.831 116.045 150.326C115.094 146.822 109.43 145.569 109.43 145.569L107.182 171.803Z" fill="#2671EA"/>
<path opacity="0.1" d="M107.182 171.803L118.692 181.407C120.489 182.906 122.721 183.787 125.057 183.922C128.634 184.133 134.218 184.649 138.273 185.901L139.961 178.85C139.961 178.85 144.805 179.023 145.842 177.38C146.452 176.41 147.131 175.485 147.873 174.612C147.873 174.612 151.378 166.441 147.399 163.933C147.399 163.933 142.988 162.59 142.078 161.379C141.169 160.169 135.031 157.965 133.128 158.093C131.226 158.221 125.604 158.525 125.604 158.525C125.604 158.525 123.397 156.017 122.404 156.277C121.411 156.536 117.948 156.277 117.948 156.277C117.948 156.277 116.996 153.831 116.045 150.326C115.094 146.822 109.43 145.569 109.43 145.569L107.182 171.803Z" fill="black"/>
<path d="M102.034 85.701L100.761 85.9397H100.681L100.494 85.9743L98.3146 86.379L97.6434 87.1747L97.6158 87.2024L95.4604 89.7556L93.6441 91.5373L93.6269 91.558L92.0908 93.0526L89.4926 95.6369L89.0567 96.7128L88.1088 99.0965L87.8632 99.7019L85.2685 102.47L83.6113 106.016L79.7366 108.264L75.5678 106.102L73.665 103.334L74.0975 99.3698L74.184 98.5775L75.4536 96.5398L76.6057 94.6855L78.8544 91.4854L83.1789 88.5447L83.9538 88.3406L84.8222 88.1123C84.8886 88.0176 84.9498 87.9195 85.0056 87.8182C85.0788 87.6966 85.1446 87.5707 85.2027 87.4411C86.1749 85.3446 85.8324 82.2275 85.1751 79.4633C84.6713 77.3955 84.0038 75.371 83.1789 73.409L94.5955 71.7657C94.5955 71.7657 94.4848 73.9799 94.4848 77.4325C94.4848 78.2974 94.4848 79.235 94.509 80.2383C94.5644 83.3519 97.4566 84.7011 99.6396 85.2754C100.202 85.4252 100.772 85.5407 101.349 85.6214C101.771 85.6871 102.034 85.701 102.034 85.701Z" fill="#CC818C"/>
<path d="M84.0438 87.3339C84.0438 87.3339 84.5627 85.2581 80.4112 79.9822C76.2597 74.7064 75.4813 65.9709 75.4813 65.9709C75.4813 65.9709 74.4434 61.4734 75.4813 60.1761C76.5192 58.8787 78.249 44.6079 78.249 44.6079L81.1031 36.5644C81.1031 36.5644 95.028 22.3801 89.2332 20.6503C85.2962 19.474 80.5842 25.5318 77.993 29.531C76.7131 31.4963 75.8859 33.7214 75.5713 36.0455L67.6972 57.5814C67.6972 57.5814 66.9188 60.1761 67.6972 64.6736C68.4756 69.171 70.2054 77.1281 70.2054 77.1281L74.6164 88.2956C74.6164 88.2956 76.9378 95.2494 75.7339 96.097L78.422 92.1219L84.0438 87.3339Z" fill="#CC818C"/>
<path d="M152.976 107.237C152.976 107.237 151.419 111.388 148.219 111.042C145.019 110.696 129.624 106.286 129.624 106.286C129.624 106.286 123.224 103.085 120.715 103.172C118.207 103.258 106.704 97.896 106.704 97.896C106.704 97.896 105.895 98.9616 104.992 100.082C104.009 101.311 102.916 102.608 102.639 102.653C102.12 102.739 94.0766 103.864 94.0766 103.864L88.6277 101.356L88.1088 99.0965L87.8632 98.0586L89.0706 96.7128L90.6585 94.945L93.6372 91.5477L93.6545 91.5269L97.6296 87.2059L97.6573 87.1782L100.204 86.1403L100.695 85.9397H100.774C101.079 85.8878 102.248 85.7805 103.815 86.6662C104.907 87.2842 106.119 87.6595 107.368 87.7663C109.856 87.9438 112.211 88.9527 114.056 90.6309L126.856 97.3667L147.008 104.632C147.008 104.632 148.738 94.6855 151.679 96.8477C154.619 99.01 152.976 107.237 152.976 107.237Z" fill="#CC818C"/>
<path opacity="0.1" d="M104.992 100.082C104.009 101.311 102.916 102.608 102.639 102.653C102.12 102.739 94.0766 103.864 94.0766 103.864L88.6277 101.356L88.1088 99.0965L87.8632 99.7019L85.2685 102.47L83.6113 106.016L79.7366 108.264L75.5678 106.102L73.665 103.334L74.0975 99.3698C74.3154 98.8993 74.9105 97.6192 75.4536 96.5398C75.7102 95.9451 76.0329 95.3811 76.4154 94.8585C76.7614 94.6301 77.1246 92.1773 77.1246 92.1773C78.6953 87.6487 83.9573 86.9533 83.9573 86.9533L84.798 87.7421L85.1647 88.1227C85.0159 88.0984 85.1924 87.7767 85.0021 87.8286C84.6976 87.9151 84.5627 88.3752 84.1718 88.6277C82.0441 90.0116 78.7195 93.2394 77.4048 94.772C77.0865 95.1422 76.7579 95.5054 76.4223 95.8583C74.523 97.8683 74.8724 100.532 74.8724 100.532C74.3984 102.608 78.5915 104.165 78.5915 104.165C79.7608 102.22 87.6729 96.8581 87.6729 96.8581L93.0007 90.8903C94.6336 88.0465 97.8441 86.168 99.6362 85.2892C100.428 84.9018 100.947 84.708 100.947 84.708L102.94 85.5591C102.414 85.4181 101.857 85.4423 101.345 85.6283C101.051 85.7193 100.765 85.835 100.491 85.9742C100.387 86.0261 100.283 86.0815 100.186 86.1403C99.6413 86.4567 99.1291 86.8264 98.6571 87.2439L94.1804 92.1323C90.7588 95.8652 93.3362 101.902 98.3976 101.989H98.4426C101.535 102.701 103.753 101.269 104.992 100.082Z" fill="black"/>
<path opacity="0.1" d="M96.2804 209.855C96.2804 209.855 95.6403 211.834 94.7582 214.508C91.3747 214.761 85.7874 213.453 83.6321 212.9L84.0888 210.592L96.2804 209.855Z" fill="black"/>
<path d="M85.1682 88.1227L84.0611 86.9879C84.0611 86.9879 80.0653 87.5345 77.5848 91.8037C77.5848 91.8037 76.4258 95.0038 76.0695 95.2321C75.7131 95.4605 73.665 99.9337 73.665 99.9337C73.665 99.9337 71.2157 107.168 73.2603 111.61C75.3049 116.052 75.3948 118.097 75.3948 118.097L76.924 124.67L77.5571 130.433L83.0509 144.012L88.1088 151.219C88.1088 151.219 87.6349 156.536 86.597 157.273C85.5591 158.01 86.0331 161.812 86.0331 161.812L85.3861 171.803C85.3861 171.803 83.3519 174.785 83.2239 179.629C83.0959 184.472 82.359 185.856 82.359 185.856C82.359 185.856 82.013 189.921 82.9644 191.782C83.9158 193.644 81.4491 195.588 81.4491 195.588L83.5699 202.808L82.7465 211.976C82.7465 211.976 92.5198 214.702 96.1524 213.578C99.7849 212.453 101.688 213.232 101.688 213.232L108.174 186.97L110.423 166.344C110.423 166.344 110.555 151.727 112.499 147.271C114.166 143.466 111.98 129.908 104.469 127.347C102.902 126.815 102.106 125.036 100.767 124.061C99.5704 123.193 97.6158 121.141 98.5741 117.432C99.9164 112.243 103.29 104.071 103.29 104.071L105.787 99.0965C105.787 99.0965 103.072 103.49 98.1001 102.366H98.0552C92.9938 102.276 90.4164 96.2389 93.8379 92.5094L98.3146 87.6176C98.3146 87.6176 100.781 85.3446 102.598 85.9189L100.608 85.0679C100.608 85.0679 95.0073 87.1436 92.6513 91.2501L87.3235 97.2179C87.3235 97.2179 79.4183 102.556 78.249 104.514C78.249 104.514 74.056 102.957 74.5299 100.882C74.5299 100.882 74.184 98.2143 76.0798 96.2043C76.4258 95.8583 76.7441 95.4916 77.0624 95.1214C78.7679 93.1287 83.4834 87.8424 85.1682 88.1227Z" fill="#2D7EFF"/>
<path opacity="0.1" d="M85.8186 123.756C85.8186 123.756 84.5628 132.883 85.5142 134.741L85.8186 123.756Z" fill="black"/>
<path opacity="0.1" d="M86.6385 127.303L87.9808 132.537C87.9808 132.537 88.4548 129.337 86.6385 127.303Z" fill="black"/>
<path opacity="0.1" d="M78.6814 126.081C78.6814 126.081 81.3626 139.401 84.3033 143.424L78.6814 126.081Z" fill="black"/>
<path opacity="0.1" d="M97.5812 142.137C97.5812 142.137 92.9972 146.462 91.2224 146.147C91.2224 146.147 98.2731 146.451 100.477 142.732C100.477 142.743 99.0515 141.705 97.5812 142.137Z" fill="black"/>
<path opacity="0.1" d="M103.936 141.791C103.936 141.791 98.0552 146.071 96.8893 146.462C96.8893 146.462 103.245 144.645 103.936 141.791Z" fill="black"/>
<path opacity="0.1" d="M84.0438 110.005C84.0438 110.005 81.1031 113.769 79.6328 113.336C79.6328 113.336 83.2239 113.464 84.0438 110.005Z" fill="black"/>
<path opacity="0.1" d="M87.3754 114.848C87.3754 114.848 93.7757 106.158 96.8028 106.503C96.8028 106.503 89.5377 112.817 87.3754 114.848Z" fill="black"/>
<path opacity="0.1" d="M96.2389 111.686C96.2389 111.686 92.1739 113.724 92.6063 114.319C93.0387 114.914 96.2389 111.686 96.2389 111.686Z" fill="black"/>
<path opacity="0.1" d="M99.1795 178.418C99.1795 178.418 85.6006 186.334 84.3483 186.721C84.3483 186.721 86.6835 188.496 88.8873 187.631C91.091 186.766 99.1795 178.418 99.1795 178.418Z" fill="black"/>
<path opacity="0.1" d="M87.8078 194.896C87.8078 194.896 82.359 194.332 82.5735 196.107C82.788 197.882 87.8078 194.896 87.8078 194.896Z" fill="black"/>
<path opacity="0.1" d="M94.5955 71.7657C94.5955 71.7657 94.4848 73.9799 94.4848 77.4325C93.2038 78.4824 91.6921 79.2135 90.0738 79.5659C88.4554 79.9183 86.7766 79.8819 85.1751 79.4598C84.6713 77.392 84.0038 75.3675 83.1789 73.4056L94.5955 71.7657Z" fill="black"/>
<path d="M87.8493 79.1312C93.6291 79.1312 98.3146 74.4457 98.3146 68.6659C98.3146 62.8861 93.6291 58.2007 87.8493 58.2007C82.0695 58.2007 77.3841 62.8861 77.3841 68.6659C77.3841 74.4457 82.0695 79.1312 87.8493 79.1312Z" fill="#CC818C"/>
<path opacity="0.1" d="M90.5928 75.0523C90.8869 79.3319 91.7864 84.2272 95.502 86.379C98.1866 87.9324 101.57 87.5242 104.542 86.6385C107.514 85.7528 110.423 84.4313 113.516 84.2825C115.893 84.1684 118.242 84.753 120.612 84.9018C122.981 85.0506 125.576 84.6804 127.268 83.0129C129.69 80.6396 129.247 76.3255 126.953 73.8311C124.659 71.3367 121.072 70.4303 117.674 70.5237C113.523 70.6379 108.887 71.9076 105.604 69.389C103.4 67.6938 102.566 64.7531 100.712 62.6808C97.6158 59.2213 83.9227 54.2256 81.0236 59.8647C79.6639 62.5044 85.8428 64.3899 87.275 66.2996C89.5376 69.3129 90.3229 71.1015 90.5928 75.0523Z" fill="black"/>
<path d="M90.9146 74.6821C91.2121 78.9651 92.1081 83.8605 95.8237 86.0089C98.5084 87.5622 101.892 87.154 104.864 86.2718C107.835 85.3896 110.745 84.0646 113.841 83.9158C116.215 83.8016 118.564 84.3828 120.937 84.5351C123.31 84.6873 125.898 84.3137 127.59 82.6461C130.011 80.2694 129.569 75.9587 127.275 73.4644C124.981 70.97 121.394 70.0636 118 70.157C113.848 70.2677 109.209 71.5408 105.926 69.0188C103.722 67.3236 102.888 64.3864 101.034 62.3107C97.9375 58.8511 84.2445 53.8589 81.3454 59.498C79.9857 62.1342 86.1646 64.0197 87.6003 65.9329C89.8594 68.9427 90.6447 70.7278 90.9146 74.6821Z" fill="#663D5B"/>
<path opacity="0.1" d="M78.3285 104.161C78.4891 102.796 78.9391 101.481 79.6484 100.303C80.3577 99.1252 81.3101 98.1124 82.442 97.3321" fill="black"/>
<path opacity="0.1" d="M117.567 158.352C117.535 158.691 117.452 159.024 117.322 159.338C116.868 160.697 116.323 162.022 115.689 163.306C116.612 163.227 117.373 162.5 117.764 161.663C118.106 160.802 118.294 159.887 118.321 158.961C118.355 158.672 118.363 158.38 118.346 158.089C118.321 157.82 118.148 156.789 117.702 156.972C117.342 157.124 117.574 158.079 117.567 158.352Z" fill="black"/>
<path opacity="0.1" d="M128.212 81.5633C126.517 83.2308 123.929 83.6045 121.556 83.4522C119.183 83.3 116.823 82.7188 114.461 82.8364C111.347 82.9852 108.462 84.3067 105.486 85.1924C102.511 86.0781 99.1311 86.4863 96.443 84.9329C92.7309 82.7811 91.8314 77.8858 91.5373 73.6062C91.2675 69.6554 90.4787 67.8668 88.2196 64.8535C86.853 63.0303 81.1793 61.2313 81.8297 58.7819C81.6417 59.0028 81.4792 59.2442 81.3454 59.5015C79.9857 62.1377 86.1646 64.0232 87.6003 65.9363C89.8594 68.9462 90.6447 70.7382 90.9146 74.6856C91.2121 78.9686 92.1081 83.8639 95.8237 86.0123C98.5084 87.5657 101.892 87.1575 104.864 86.2753C107.835 85.3931 110.745 84.068 113.841 83.9193C116.215 83.8051 118.564 84.3863 120.937 84.5385C123.31 84.6908 125.898 84.3171 127.59 82.6496C128.07 82.1729 128.452 81.6063 128.714 80.9821C128.562 81.1884 128.394 81.3828 128.212 81.5633Z" fill="black"/>
<path d="M77.5779 113.021L76.3082 115.789L80.3455 114.983L77.5779 113.021Z" fill="#CC818C"/>
<path opacity="0.1" d="M77.5779 113.021L76.5331 115.789H76.3082L77.5779 113.021Z" fill="black"/>
<path opacity="0.1" d="M177.484 238.642C185.318 238.642 191.668 237.77 191.668 236.695C191.668 235.619 185.318 234.747 177.484 234.747C169.65 234.747 163.3 235.619 163.3 236.695C163.3 237.77 169.65 238.642 177.484 238.642Z" fill="#2FAFFF"/>
<path opacity="0.1" d="M231.817 244.15C239.651 244.15 246.001 243.278 246.001 242.202C246.001 241.127 239.651 240.255 231.817 240.255C223.983 240.255 217.632 241.127 217.632 242.202C217.632 243.278 223.983 244.15 231.817 244.15Z" fill="#2FAFFF"/>
<path opacity="0.1" d="M295.816 236.695C303.649 236.695 310 235.823 310 234.747C310 233.671 303.649 232.799 295.816 232.799C287.982 232.799 281.631 233.671 281.631 234.747C281.631 235.823 287.982 236.695 295.816 236.695Z" fill="#2FAFFF"/>
<path opacity="0.1" d="M210.07 259.272C215.637 259.272 220.151 258.652 220.151 257.888C220.151 257.124 215.637 256.504 210.07 256.504C204.502 256.504 199.989 257.124 199.989 257.888C199.989 258.652 204.502 259.272 210.07 259.272Z" fill="#2FAFFF"/>
<path opacity="0.1" d="M266.461 257.888C272.029 257.888 276.542 257.269 276.542 256.504C276.542 255.74 272.029 255.121 266.461 255.121C260.893 255.121 256.38 255.74 256.38 256.504C256.38 257.269 260.893 257.888 266.461 257.888Z" fill="#2FAFFF"/>
<path d="M232.125 241.766C232.125 241.766 212.232 176.553 235.238 150.433C252.446 130.894 271.983 133.232 280.732 135.647C282.996 136.25 285.102 137.338 286.903 138.836C288.705 140.333 290.159 142.205 291.166 144.32C294.224 150.921 293.674 161.618 272.083 174.132C235.93 195.062 233.681 223.777 233.681 223.777L232.125 241.766Z" fill="#92DFFB"/>
<path d="M277.618 144.898C277.618 144.898 218.978 163.234 232.125 241.767" stroke="#565987" stroke-miterlimit="10"/>
<path d="M243.368 151.471C243.368 151.471 251.439 156.913 248.876 165.088" stroke="#565987" stroke-miterlimit="10"/>
<path d="M271.737 156.315C271.737 156.315 266.8 151.291 260.791 154.062" stroke="#565987" stroke-miterlimit="10"/>
<path d="M248.558 181.57C248.558 181.57 239.888 177.169 237.646 182.68" stroke="#565987" stroke-miterlimit="10"/>
<path d="M227.108 190.738C227.108 190.738 233.616 190.219 233.733 193.332" stroke="#565987" stroke-miterlimit="10"/>
<path d="M231.336 242.285C231.336 242.285 254.633 194.889 261.033 195.927C264.074 196.418 265.475 199.411 266.108 202.414C266.89 206.301 266.44 210.335 264.821 213.955C261.517 221.535 252.637 235.937 231.336 242.285Z" fill="#92DFFB"/>
<path d="M260.843 204.922C260.843 204.922 236.39 240.383 231.664 241.939" stroke="#565987" stroke-miterlimit="10"/>
<path d="M263.091 210.457H257.383" stroke="#565987" stroke-miterlimit="10"/>
<path d="M256.255 223.431L247.309 223.815" stroke="#565987" stroke-miterlimit="10"/>
<path d="M250.81 213.052L251.782 217.712" stroke="#565987" stroke-miterlimit="10"/>
<path d="M241.296 227.236L241.469 231.471" stroke="#565987" stroke-miterlimit="10"/>
<path d="M232.028 242.285C232.028 242.285 208.731 194.889 202.331 195.927C199.29 196.418 197.889 199.411 197.255 202.414C196.463 206.297 196.901 210.332 198.508 213.955C201.812 221.535 210.692 235.937 232.028 242.285Z" fill="#92DFFB"/>
<path d="M202.486 204.922C202.486 204.922 226.939 240.383 231.665 241.939" stroke="#565987" stroke-miterlimit="10"/>
<path d="M200.234 210.457H205.942" stroke="#565987" stroke-miterlimit="10"/>
<path d="M207.074 223.431L216.02 223.815" stroke="#565987" stroke-miterlimit="10"/>
<path d="M212.516 213.052L211.547 217.712" stroke="#565987" stroke-miterlimit="10"/>
<path d="M222.03 227.236L221.857 231.471" stroke="#565987" stroke-miterlimit="10"/>
<path d="M272.014 253.353C272.65 252.837 273.113 252.139 273.342 251.353C273.512 250.557 273.173 249.606 272.415 249.315C271.564 248.99 270.654 249.578 269.966 250.173C269.277 250.768 268.485 251.45 267.582 251.322C268.046 250.901 268.392 250.367 268.588 249.772C268.784 249.178 268.822 248.542 268.699 247.928C268.662 247.673 268.554 247.433 268.388 247.236C267.917 246.731 267.06 246.949 266.492 247.347C264.693 248.613 264.192 251.055 264.185 253.256C264.001 252.46 264.153 251.633 264.15 250.834C264.147 250.035 263.922 249.104 263.237 248.682C262.814 248.448 262.336 248.329 261.853 248.336C261.043 248.309 260.144 248.388 259.59 248.98C258.898 249.713 259.082 250.948 259.68 251.747C260.279 252.547 261.185 253.062 262.019 253.622C262.691 254.02 263.264 254.565 263.693 255.217C263.744 255.307 263.786 255.403 263.818 255.501H268.886C270.021 254.929 271.073 254.206 272.014 253.353Z" fill="#92DFFB"/>
<path d="M183.248 234.266C183.883 233.749 184.345 233.05 184.573 232.263C184.746 231.467 184.407 230.533 183.645 230.225C182.794 229.9 181.888 230.488 181.196 231.087C180.504 231.685 179.715 232.36 178.816 232.235C179.279 231.812 179.625 231.276 179.82 230.68C180.014 230.083 180.051 229.446 179.926 228.831C179.888 228.576 179.78 228.337 179.615 228.139C179.141 227.634 178.286 227.849 177.719 228.246C175.92 229.513 175.418 231.955 175.408 234.155C175.228 233.363 175.38 232.536 175.377 231.734C175.374 230.931 175.149 230.004 174.46 229.578C174.036 229.35 173.558 229.238 173.076 229.253C172.27 229.222 171.367 229.302 170.817 229.893C170.125 230.63 170.309 231.862 170.904 232.661C171.499 233.46 172.409 233.975 173.246 234.536C173.916 234.935 174.487 235.48 174.917 236.131C174.969 236.222 175.01 236.318 175.041 236.418H180.113C181.25 235.844 182.304 235.12 183.248 234.266Z" fill="#92DFFB"/>
<path d="M212.824 253.353C213.46 252.837 213.923 252.139 214.152 251.353C214.322 250.557 213.983 249.606 213.225 249.315C212.374 248.99 211.464 249.578 210.776 250.173C210.087 250.768 209.295 251.45 208.392 251.322C208.856 250.901 209.204 250.368 209.4 249.773C209.597 249.178 209.635 248.542 209.513 247.928C209.475 247.673 209.368 247.433 209.201 247.236C208.731 246.731 207.873 246.949 207.306 247.347C205.507 248.613 205.005 251.055 204.998 253.256C204.815 252.46 204.967 251.633 204.963 250.834C204.96 250.035 204.735 249.104 204.05 248.682C203.627 248.448 203.15 248.329 202.666 248.336C201.857 248.309 200.957 248.388 200.404 248.98C199.712 249.713 199.895 250.948 200.494 251.747C201.092 252.547 201.999 253.062 202.832 253.622C203.505 254.02 204.077 254.565 204.507 255.217C204.558 255.307 204.6 255.403 204.631 255.501H209.7C210.833 254.929 211.884 254.206 212.824 253.353Z" fill="#92DFFB"/>
<path d="M296.722 214.768C296.722 214.768 298.625 217.252 295.847 220.995C293.069 224.738 290.778 227.914 291.695 230.253C291.695 230.253 295.888 223.285 299.306 223.189C302.724 223.092 300.49 218.957 296.722 214.768Z" fill="#2FAFFF"/>
<path opacity="0.1" d="M296.722 214.768C296.888 215.007 297.019 215.269 297.109 215.546C300.441 219.456 302.212 223.105 299.012 223.199C296.034 223.282 292.46 228.613 291.602 229.959C291.63 230.062 291.664 230.164 291.702 230.263C291.702 230.263 295.895 223.296 299.313 223.199C302.731 223.102 300.49 218.957 296.722 214.768Z" fill="black"/>
<path d="M300.268 217.933C300.268 218.809 300.171 219.518 300.05 219.518C299.929 219.518 299.836 218.798 299.836 217.933C299.836 217.068 299.957 217.473 300.078 217.473C300.199 217.473 300.268 217.068 300.268 217.933Z" fill="#FFD037"/>
<path d="M301.483 218.978C300.714 219.397 300.043 219.649 299.988 219.546C299.933 219.442 300.503 219.013 301.271 218.594C302.04 218.176 301.739 218.48 301.794 218.594C301.849 218.708 302.257 218.56 301.483 218.978Z" fill="#FFD037"/>
<path d="M286.689 214.768C286.689 214.768 284.787 217.252 287.565 220.995C290.343 224.738 292.633 227.914 291.716 230.253C291.716 230.253 287.527 223.285 284.105 223.189C280.683 223.092 282.946 218.957 286.689 214.768Z" fill="#2FAFFF"/>
<path opacity="0.1" d="M286.689 214.768C286.522 215.007 286.391 215.269 286.298 215.546C282.97 219.456 281.199 223.105 284.396 223.199C287.378 223.282 290.969 228.613 291.809 229.959C291.782 230.063 291.747 230.164 291.706 230.263C291.706 230.263 287.516 223.296 284.095 223.199C280.673 223.102 282.946 218.957 286.689 214.768Z" fill="black"/>
<path d="M283.164 217.933C283.164 218.809 283.264 219.518 283.385 219.518C283.506 219.518 283.603 218.809 283.603 217.933C283.603 217.058 283.482 217.473 283.361 217.473C283.24 217.473 283.164 217.068 283.164 217.933Z" fill="#FFD037"/>
<path d="M281.953 218.978C282.721 219.397 283.389 219.649 283.448 219.546C283.506 219.442 282.932 219.013 282.164 218.594C281.396 218.176 281.697 218.48 281.638 218.594C281.579 218.708 281.185 218.56 281.953 218.978Z" fill="#FFD037"/>
<path d="M283.769 229.938C283.769 229.938 289.083 229.776 290.689 228.634C292.294 227.492 298.864 226.133 299.261 227.963C299.659 229.793 307.246 237.058 301.247 237.106C295.248 237.155 287.309 236.172 285.71 235.197C284.112 234.221 283.769 229.938 283.769 229.938Z" fill="#A8A8A8"/>
<path opacity="0.2" d="M301.351 236.47C295.352 236.518 287.409 235.536 285.811 234.56C284.596 233.82 284.108 231.159 283.949 229.931H283.769C283.769 229.931 284.115 234.218 285.707 235.19C287.298 236.162 295.245 237.148 301.244 237.1C302.974 237.1 303.572 236.47 303.541 235.557C303.295 236.114 302.638 236.459 301.351 236.47Z" fill="black"/>
<defs>
<linearGradient id="paint0_linear" x1="127.389" y1="255.024" x2="127.389" y2="17.9795" gradientUnits="userSpaceOnUse">
<stop stop-color="#808080" stop-opacity="0.25"/>
<stop offset="0.54" stop-color="#808080" stop-opacity="0.12"/>
<stop offset="1" stop-color="#808080" stop-opacity="0.1"/>
</linearGradient>
</defs>
</svg>
